<?xml version="1.0" encoding="UTF-8" standalone="no"?>
<!DOCTYPE svg PUBLIC "-//W3C//DTD SVG 1.1//EN" "http://www.w3.org/Graphics/SVG/1.1/DTD/svg11.dtd">
<svg width="100%" height="100%" viewBox="0 0 89 89" version="1.1" xmlns="http://www.w3.org/2000/svg" xmlns:xlink="http://www.w3.org/1999/xlink" xml:space="preserve" xmlns:serif="http://www.serif.com/" style="fill-rule:evenodd;clip-rule:evenodd;stroke-linejoin:round;stroke-miterlimit:2;">
    <g transform="matrix(5.55556,0,0,5.55556,0,0)">
        <g transform="matrix(5.96274e-17,0.973789,-0.973789,5.96274e-17,16.4576,0.419378)">
            <g transform="matrix(0.642923,-7.92464e-33,7.92464e-33,0.642923,6.99907,5.71323)">
                <path d="M8,16C7.735,16 7.48,15.895 7.293,15.707C7.105,15.52 7,15.265 7,15L7,-5.755C7,-6.02 7.105,-6.274 7.293,-6.462C7.48,-6.649 7.735,-6.755 8,-6.755C8.265,-6.755 8.52,-6.649 8.707,-6.462C8.895,-6.274 9,-6.02 9,-5.755L9,15C9,15.265 8.895,15.52 8.707,15.707C8.52,15.895 8.265,16 8,16Z" style="fill:white;fill-opacity:0.5;fill-rule:nonzero;"/>
            </g>
            <g transform="matrix(0.642923,-1.58493e-32,1.58493e-32,0.642923,6.99907,1.58589)">
                <path d="M8,7C9.105,7 10,6.105 10,5C10,3.895 9.105,3 8,3C6.895,3 6,3.895 6,5C6,6.105 6.895,7 8,7Z" style="fill:white;fill-rule:nonzero;"/>
            </g>
            <g transform="matrix(0.642923,0,0,0.642923,5.71323,5.71323)">
                <path d="M14,16C13.735,16 13.48,15.895 13.293,15.707C13.105,15.52 13,15.265 13,15L13,-5.755C13,-6.02 13.105,-6.274 13.293,-6.462C13.48,-6.649 13.735,-6.755 14,-6.755C14.265,-6.755 14.52,-6.649 14.707,-6.462C14.895,-6.274 15,-6.02 15,-5.755L15,15C15,15.265 14.895,15.52 14.707,15.707C14.52,15.895 14.265,16 14,16Z" style="fill:white;fill-opacity:0.5;fill-rule:nonzero;"/>
            </g>
            <g transform="matrix(0.642923,-7.92464e-33,7.92464e-33,0.642923,5.71323,3.84018)">
                <path d="M14,13C15.105,13 16,12.105 16,11C16,9.895 15.105,9 14,9C12.895,9 12,9.895 12,11C12,12.105 12.895,13 14,13Z" style="fill:white;fill-rule:nonzero;"/>
            </g>
        </g>
        <g transform="matrix(0.934694,0,0,1.00747,1.42038,-1.00747)">
            <rect x="6" y="7" width="9" height="3" style="fill:white;fill-rule:nonzero;"/>
        </g>
        <g transform="matrix(1.06297,0,0,1.00747,-0.503756,-1.00747)">
            <rect x="1" y="1" width="14" height="3" style="fill:white;fill-rule:nonzero;"/>
        </g>
        <g transform="matrix(1.00747,0,0,1.00747,0.843473,-1.00747)">
            <path d="M2,8.09L2,5L1,5L1,9.09L5,9.09L5,8.09L2,8.09Z" style="fill:white;fill-opacity:0.5;"/>
        </g>
    </g>
</svg>
